<svg height="26" viewBox="0 0 26 26" width="26" xmlns="http://www.w3.org/2000/svg"><path d="m11.6113629 26h8.1444527c3.4480807 0 6.2420653-2.7934973 6.2441832-6.2402626l-.0097006.0002933s-.2597306-5.98-2.5973051-8.84c-.1617644-.1979172-.3334794-.3808931-.5129931-.5500477v8.3435744c0 2.3010627-1.8589728 4.1664426-4.1664426 4.1664426h-1.758088c-.2983787.4205107-.6471993.808618-1.0549867 1.1419165-1.0693188.8739903-2.685051 1.5163383-4.2891198 1.9780835zm-5.37108542-.0000012c-3.4467721-.0021099-6.24027748-2.7960976-6.24027748-6.2441832v-8.1444352c.46174521 1.6040649 1.10409319 3.2197931 1.97808354 4.2891092.33329845.4077865.72140579.7566062 1.14191646 1.0549842v1.7580836c0 2.3074698 1.86537988 4.1664426 4.16644257 4.1664426h8.34360433c-.1691587.1795193-.3521394.3512394-.5500623.5130085-2.86 2.3375745-8.83999996 2.597305-8.83999996 2.597305l.00029284.0096854zm11.32905742-4.1599988h1.1505338c1.7328114 0 3.1201313-1.3969304 3.1201313-3.1201313v-9.14002598c-1.1144607-.68150759-2.3491288-.99948584-3.3356341-1.14568609.1380202.27727671.2156341.58906907.2156341.91754107v7.2966046c0 .0014439-.0000015.0028874-.0000045.0043305.0003937.0810915.0050814 2.8305884-1.1506606 5.1873672zm-1.1491529 0h-9.14005072c-1.72320092 0-3.12013128-1.3873199-3.12013128-3.1201313v-1.1505309c2.35677882 1.1557391 5.10627586 1.1510514 5.18736717 1.1506577.00144317.000003.00288667.0000045.00433053.0000045h7.2966046c.3284795 0 .6402786-.0776175.9175601-.2156436-.1461979.9865049-.4641735 2.2211776-1.1456804 3.3356436zm9.579818-7.4512942v-8.14452143c0-3.44809089-2.7935139-6.24208186-6.2402933-6.24418318l.0002933.00970066s-5.9799853.2597305-8.8399782 2.59730504c-.1979168.16176442-.3808922.33347941-.5500464.51299311h8.343582c2.3010627 0 4.1664426 1.85897283 4.1664426 4.16644257v1.75811425c.4205048.29837633.8086067.64719337 1.1419011 1.05497588.874 1.0693306 1.5163526 2.6850868 1.9780989 4.2891731zm-4.16-5.95801785v-1.15055667c0-1.73281133-1.3969304-3.12013128-3.1201313-3.12013128h-9.14003165c-.68150625 1.11446127-.9994837 2.34913012-1.14568349 3.33563562.27727749-.13802113.58907093-.21563562.91754414-.21563562h7.2966046c.0022173 0 .0044338.00000352.0066494.00001054.1208931-.00038808 2.8463346.00378858 5.1850483 1.15067741zm-7.4513116-8.43068795h-8.14450403c-3.44809586 0-6.24208991 2.79352197-6.24418319 6.2403082l.00968531-.00029284s.2597305 5.97998524 2.59730504 8.83997824c.16176904.1979224.33348921.3809026.51300847.5500609v-8.34361193c0-2.30106269 1.85897283-4.16644257 4.16644257-4.16644257h1.75810991c.2983756-.42050476.64719177-.80860671 1.05497322-1.1419011 1.0693281-.87400004 2.6850802-1.51635258 4.2891627-1.9780989zm-5.95800329 4.16h-1.15055383c-1.73281133 0-3.12013128 1.39693036-3.12013128 3.12013128v9.14005642c1.11446661.6815055 2.34914001.9994803 3.3356451 1.1456778-.13802705-.2772823-.2156451-.5890825-.2156451-.9175632v-7.2966046c0-.00221729.00000352-.00443376.00001054-.00664941-.00038808-.12089301.00378856-2.84633459 1.15067457-5.18504829z" fill="#e4e7e9" fill-rule="evenodd"/></svg>