<?xml version="1.0" encoding="utf-8"?>
<!-- Generator: Adobe Illustrator 25.1.0, SVG Export Plug-In . SVG Version: 6.00 Build 0)  -->
<svg version="1.1" id="Capa_1" xmlns="http://www.w3.org/2000/svg" xmlns:xlink="http://www.w3.org/1999/xlink" x="0px" y="0px"
	 viewBox="0 0 612 612" style="enable-background:new 0 0 612 612;" xml:space="preserve">
<style type="text/css">
	.st0{fill:#2E54E7;}
</style>
<g>
	<path class="st0" d="M210.6,215.6c-1.1,1.3-2.4,2.4-3.7,3.4L25.4,53.3c0.9-1.4,2-2.7,3.1-4l7.9-8.6c13.2-14.5,32.1-22.8,51.8-22.8
		c17.5,0,34.3,6.5,47.2,18.3L214,108c13.8,12.6,21.9,29.9,22.8,48.6c0.9,18.7-5.6,36.6-18.3,50.4L210.6,215.6z M593.7,549.6
		c26-28.5,24-72.9-4.5-99l-78.6-71.8c-12.9-11.8-29.7-18.3-47.2-18.3c-19.7,0-38.5,8.3-51.8,22.8l-7.9,8.6c-1.1,1.3-2.2,2.6-3.1,4
		l181.6,165.8c1.3-1.1,2.5-2.2,3.7-3.4L593.7,549.6z M2.8,139.5c-3.4,16.3-26,154.8,148.9,314.4c133.7,122,254.8,140.3,315,140.3
		c0,0,0,0,0,0c13.9,0,23.5-1,28-1.6l0.4-0.1c1.6-0.2,2.3-0.3,2.3-0.3c0,0,0.1,0,0.1,0c18.1-2.9,34.5-10.4,48.2-21.8L395.3,432.9
		c-6.6,9.6-11.5,20.3-14.4,31.6c-29.5-9.7-94.1-34.9-148.6-84.7c-54.1-49.4-81.7-107.7-92.4-134.7c11.2-3.9,21.6-9.8,30.7-17.4
		L20.1,90.3C10.1,104.8,4.1,121.5,2.8,139.5z"/>
</g>
</svg>
